<svg width="24" height="24" viewBox="0 0 24 24" fill="none" xmlns="http://www.w3.org/2000/svg">
<path fill-rule="evenodd" clip-rule="evenodd" d="M12 1.99999C6.47701 1.99999 2.00001 6.47699 2.00001 12C1.99817 13.4735 2.32296 14.9291 2.95101 16.262L2.02101 20.799C1.9879 20.961 1.99547 21.1287 2.04305 21.287C2.09063 21.4454 2.17673 21.5894 2.29364 21.7064C2.41056 21.8233 2.55464 21.9094 2.71299 21.957C2.87134 22.0045 3.03901 22.0121 3.20101 21.979L7.73801 21.049C9.03201 21.659 10.478 21.999 12 21.999C17.523 21.999 22 17.523 22 11.999C22 6.47699 17.523 1.99899 12 1.99899" fill="#A9A9A9"/>
</svg>
