<?xml version="1.0" standalone="no"?>
<!DOCTYPE svg PUBLIC "-//W3C//DTD SVG 20010904//EN"
 "http://www.w3.org/TR/2001/REC-SVG-20010904/DTD/svg10.dtd">
<svg version="1.0" xmlns="http://www.w3.org/2000/svg"
 width="864.000000pt" height="864.000000pt" viewBox="0 0 864.000000 864.000000"
 preserveAspectRatio="xMidYMid meet">
<metadata>
Created by potrace 1.14, written by Peter Selinger 2001-2017
</metadata>
<g transform="translate(0.000000,864.000000) scale(0.100000,-0.100000)"
fill="#000000" stroke="none">
<path d="M2348 7144 c-2 -1 -37 -6 -78 -9 -40 -3 -77 -8 -81 -11 -4 -2 -29 -7
-56 -9 -73 -8 -87 -10 -101 -19 -6 -4 -12 -5 -12 -3 0 3 -33 -4 -72 -14 -40
-11 -80 -22 -88 -24 -8 -2 -16 -4 -17 -5 -2 -2 -6 -3 -10 -4 -58 -15 -100 -30
-110 -38 -7 -6 -13 -8 -13 -5 0 7 -129 -46 -182 -74 -21 -11 -38 -17 -38 -13
0 3 -6 2 -12 -4 -7 -5 -35 -22 -63 -38 -27 -15 -66 -36 -85 -47 -55 -30 -175
-110 -178 -119 -2 -4 -10 -8 -17 -8 -7 0 -15 -4 -17 -8 -1 -4 -32 -30 -68 -57
-90 -69 -293 -273 -372 -375 -123 -160 -259 -394 -313 -540 -64 -174 -117
-372 -130 -486 -3 -27 -9 -60 -12 -74 -4 -14 -8 -378 -9 -810 -2 -614 0 -806
11 -880 16 -115 26 -173 30 -180 2 -3 6 -25 10 -50 4 -24 12 -53 17 -65 6 -11
11 -22 10 -25 -5 -16 37 -143 75 -228 12 -29 23 -56 23 -61 0 -8 92 -190 126
-248 11 -18 22 -33 27 -33 4 0 7 -6 7 -14 0 -7 7 -19 15 -26 8 -7 13 -16 10
-20 -3 -5 -2 -10 2 -12 5 -1 33 -37 64 -78 57 -76 65 -85 142 -174 135 -155
310 -298 542 -443 57 -36 318 -161 348 -167 7 -2 26 -9 42 -16 35 -14 218 -69
255 -76 14 -3 33 -7 42 -10 27 -8 61 -15 93 -19 17 -2 39 -5 50 -8 21 -5 131
-17 200 -23 165 -13 439 1 581 30 12 2 37 7 55 10 19 3 44 8 57 11 12 3 30 7
40 9 85 19 280 83 355 116 26 11 48 20 49 19 6 -3 224 115 230 125 4 6 8 8 8
3 0 -7 207 127 220 142 3 3 41 35 84 71 84 68 214 196 274 268 l36 44 43 -49
c87 -96 199 -206 268 -261 39 -31 75 -61 80 -67 12 -13 195 -134 245 -161 19
-10 37 -22 38 -26 2 -5 8 -8 12 -8 5 0 53 -21 107 -48 114 -55 317 -133 384
-146 8 -2 21 -6 29 -9 8 -3 29 -8 45 -11 17 -3 62 -12 100 -20 100 -21 135
-26 295 -42 51 -5 321 -5 350 0 14 3 54 7 90 10 56 5 111 13 205 31 11 2 34 7
50 11 17 3 37 8 45 9 23 3 131 35 173 51 20 7 37 11 37 8 0 -4 6 -2 13 3 6 5
41 20 77 33 36 13 76 31 90 39 13 9 27 16 30 15 6 -1 137 61 165 79 67 42 126
77 131 77 2 0 10 5 17 10 7 6 53 41 104 78 178 132 357 307 459 448 10 15 28
38 40 53 71 89 202 326 256 461 30 75 59 155 62 173 2 6 6 19 9 27 3 8 13 47
22 85 9 39 19 81 22 95 8 31 10 44 19 100 7 48 9 70 19 190 9 113 11 339 3
334 -4 -3 -5 2 -1 12 7 19 10 1084 3 1084 -3 0 -5 19 -6 43 -1 95 -31 283 -69
437 -10 43 -78 236 -86 244 -5 6 -9 18 -9 27 0 10 -4 19 -10 21 -5 2 -11 12
-13 23 -1 11 -7 27 -12 35 -5 8 -26 47 -46 85 -59 114 -116 206 -132 213 -4 2
-7 8 -7 14 0 12 -85 123 -165 213 -69 78 -186 192 -252 245 -92 75 -182 140
-233 170 -19 11 -48 29 -65 40 -50 31 -308 158 -340 167 -5 1 -48 16 -95 33
-88 31 -294 84 -365 94 -22 3 -49 7 -60 10 -130 27 -523 27 -695 1 -264 -42
-471 -106 -710 -223 -74 -36 -137 -68 -140 -72 -3 -3 -27 -19 -55 -35 -59 -34
-176 -117 -241 -171 -121 -101 -160 -138 -262 -251 l-66 -73 -40 47 c-59 67
-205 211 -246 242 -19 14 -39 31 -45 37 -31 34 -311 224 -330 224 -3 0 -23 11
-45 25 -22 14 -40 22 -40 18 0 -5 -4 -3 -8 2 -18 27 -352 154 -469 180 -13 3
-31 7 -40 9 -115 26 -226 45 -313 53 -61 6 -418 12 -422 7z"/>
</g>
</svg>
