<svg width="864" height="602" viewBox="0 0 864 602" fill="none" xmlns="http://www.w3.org/2000/svg">
<g clip-path="url(#clip0_2018_132)">
<path d="M848.183 241.995C848.183 182.189 824.076 125.954 780.315 83.6775C736.551 41.4012 678.341 18.1127 616.432 18.1127C544.866 18.1127 478.432 49.5649 434.593 103.249C390.795 49.6012 324.322 18.1127 252.756 18.1127C190.847 18.1127 132.636 41.4012 88.8734 83.6775C45.1115 125.954 21.0046 182.189 21.0046 241.995V360.624C21.0046 420.322 45.4132 476.483 89.1376 518.688C132.862 560.927 190.96 584.18 252.756 584.18C324.359 584.18 390.832 552.58 434.593 498.678C478.356 552.58 544.829 584.18 616.432 584.18C678.227 584.18 736.363 560.927 780.051 518.688C823.737 476.446 848.183 420.322 848.183 360.624V241.995Z" fill="#000C59"/>
<path d="M52.0149 241.995C52.0149 348.924 142.067 435.919 252.754 435.919C321.227 435.919 384.342 402.646 421.542 346.885H447.61C484.807 402.646 547.922 435.919 616.395 435.919C727.083 435.919 817.134 348.924 817.134 241.995C817.134 135.065 727.083 48.0704 616.395 48.0704C547.922 48.0704 484.807 81.3448 447.61 137.106H421.542C384.342 81.3448 321.227 48.0704 252.754 48.0704C142.067 48.0704 52.0149 135.065 52.0149 241.995Z" fill="#D6FC00"/>
</g>
<defs>
<clipPath id="clip0_2018_132">
<rect width="864" height="602" fill="white"/>
</clipPath>
</defs>
</svg>
